<?xml version="1.0" encoding="UTF-8"?>
<svg width="752pt" height="752pt" version="1.1" viewBox="0 0 752 752" xmlns="http://www.w3.org/2000/svg">
 <path d="m376 168.81c-63.078-0.015625-114.57 51.477-114.56 114.56 0.035156 31.578 16.043 58.664 38.316 79.969-71.914 32.871-120.6 106.43-120.7 191 0 16.328 14.023 28.852 29.637 28.852h334.61c15.609 0 29.637-12.523 29.637-28.852-0.023437-84.562-48.688-158.11-120.57-191.07 22.207-21.289 38.129-48.387 38.188-79.902 0.015625-63.082-51.48-114.57-114.56-114.56zm0 33.422c45.012-0.011719 81.148 36.125 81.141 81.137-0.03125 28.949-15.473 55.633-40.535 70.109v0.003906c-3.7656 2.1953-6.5234 5.7695-7.6875 9.9688-1.168 4.1953-0.64453 8.6836 1.4492 12.504 2.0938 3.8203 5.5977 6.6719 9.7617 7.9453 68.68 20.848 116.71 88.102 118.67 165.93h-296.36c14.996-75.809 65.117-129.77 119-178.99-63.477-79.23-33.344-136.63-7.7695-165.15 7.1367-2.043 14.512-3.457 22.324-3.457z" fill="#28190d"/>
</svg>
