<?xml version="1.0" encoding="UTF-8"?>
<svg width="752pt" height="752pt" version="1.1" viewBox="0 0 752 752" xmlns="http://www.w3.org/2000/svg">
 <path d="m413.47 508.71c-16.133 20.297 13.012 43.195 28.102 21.859 34.348-47.359 65.574-97.84 88.992-151.44 19.777-45.277 36.43-103.04 14.051-150.4-24.461-52.043-81.184-15.613-106.69 14.051-23.938 28.102-40.07 61.41-53.602 95.758-12.488-41.633-27.062-82.227-49.961-119.7-22.379-37.992-69.734-77.543-112.93-40.074-43.715 37.992-23.938 100.44-6.2461 146.24 19.254 49.961 44.758 97.84 77.023 140.51 36.43 47.359 79.105 88.992 126.46 124.9 7.2852 5.7227 15.094-6.7656 7.2852-12.488-90.031-69.738-158.73-172.26-194.12-280.51-8.8477-27.062-19.254-61.93-1.5625-87.949 21.336-31.746 53.082-13.531 71.297 10.93 35.914 48.918 51.523 111.37 68.18 168.61 4.1641 14.57 23.418 13.012 28.102 0 14.051-38.512 28.621-76.5 51.52-110.85 10.41-15.613 23.938-33.309 41.113-42.676 27.582-15.094 35.387 11.969 36.949 34.867 2.6016 44.758-18.215 87.43-38.512 125.42-22.375 40.07-47.355 78.062-75.457 112.93z" fill="#28190d"/>
</svg>
