<?xml version="1.0" encoding="UTF-8"?>
<svg width="752pt" height="752pt" version="1.1" viewBox="0 0 752 752" xmlns="http://www.w3.org/2000/svg">
 <path d="m503.61 280.57c-17.32-12.133-34.051-24.977-50.633-38.102-8.6602-6.8477-17.375-13.625-26-20.52-8.7852-7.0273-17.648-16.801-27.645-21.891-19.512-9.9141-43.035 12.746-58.578 22.582-14.305 9.043-28.473 18.309-42.617 27.598 0.27734-13.574 0.5-27.133 0.51953-40.703 0.003906-6-5.4844-12.52-11.918-11.914-18.141 1.7188-36.309 3.2266-54.469 4.7734-5.7969 0.48438-12.133 4.8984-11.547 11.531 2.4062 27.641 4.3555 55.301 5.6953 82.992-24.668 15.613-49.66 30.699-75.332 44.711-18.246 9.9648-1.9531 37.918 16.309 27.891 20.504-11.23 40.586-23.145 60.426-35.457 0.29297 10.793 0.49609 21.594 0.55078 32.406 0.13672 24.664 0.12109 49.305-0.50391 73.941-0.62891 24.805-2.5234 49.836-1.5 74.66-3.3359 0.48047-6.668 0.92578-9.9883 1.4531-19.23 3.0195-40.281 4.9688-58.66 11.391-6.8086 2.3906-5.4648 11.781 1.6719 12.371 18.652 1.5039 38.219-1.3203 56.945-1.9609 18.824-0.62891 37.605-1.8906 56.422-2.5898 36.711-1.3945 73.523-1.9844 110.27-1.6953 67.836 0.54297 135.85 4.625 203.16 13.094 22.465 2.8242 22.527-32.871 0-35.445-14.594-1.6758-29.184-3.0391-43.797-4.2344-0.38672-12.594-1.8359-25.348-2.2969-37.73-0.67188-17.918-1.0508-35.852-1.1328-53.77-0.082031-16.934-0.050781-33.852 0.046875-50.766 0.058594-10.066 0.86328-20.52 0.72266-30.836 20.328 11.152 41.297 21.109 62.816 28.273 6.5977 2.1797 12.902-7.6562 7.0938-12.195-33.242-25.957-71.406-45.629-106.02-69.859zm-229.25-58.234c-0.53516 14.953-1.1953 29.902-1.9766 44.852-8.0391 5.293-16.086 10.559-24.156 15.777-0.9375-19.484-2.1602-38.949-3.6133-58.422 9.9141-0.76172 19.832-1.4883 29.746-2.207zm136.84 280.33c-10.34 0.0625-20.672 0.20312-31.016 0.46875-14.25 0.36328-28.492 0.99219-42.711 1.7812 1.1797-26.105 3.8203-52.254 4.7812-78.348 0.33203-9.2461 0.03125-18.531 0.46875-27.758 0.62891-13.184 8.4297-10.742 19.562-10.074 18.125 1.0859 36.273 2.0625 54.406 3.0195-2.0156 36.965-2.6914 74.004-5.4922 110.91zm108.82-140.46c-1.4297 18.902-2.3281 37.797-2.7148 56.742-0.58984 27.922-2.7773 58.098-0.34375 86.672-27.852-1.7695-55.746-2.7539-83.672-2.9648 1.1797-40.281 2.5195-80.562 4.9453-120.79 0.34766-5.8555-5.1055-10.211-10.496-10.492-26.422-1.3047-54.254-5.25-80.676-3.832-18.242 0.98438-24.043 14.988-24.242 31.277-0.45703 35.586 1.9531 71.184 3.707 106.7-18.922 1.1797-37.82 2.707-56.711 4.6055-9.6289 0.96875-19.254 1.9727-28.863 3.1016 3.7578-22.289 4.918-45.121 6.2617-67.602 1.5234-25.543 2.8008-51.148 2.9609-76.746 0.10547-16.18-0.10938-32.359-0.54297-48.527 10.371-6.6406 129.14-86.426 138.16-90.387 8.2422 5.3906 124.21 88.492 135.73 95.23-2.4375 12.09-2.5781 25.008-3.5039 37.02z" fill="#28190d"/>
</svg>
