<?xml version="1.0" standalone="no"?><svg xmlns="http://www.w3.org/2000/svg" viewBox="0 0 1440 320"><path fill="#5000ca" fill-opacity="1" d="M0,32L34.3,53.3C68.6,75,137,117,206,117.3C274.3,117,343,75,411,69.3C480,64,549,96,617,138.7C685.7,181,754,235,823,266.7C891.4,299,960,309,1029,304C1097.1,299,1166,277,1234,229.3C1302.9,181,1371,107,1406,69.3L1440,32L1440,320L1405.7,320C1371.4,320,1303,320,1234,320C1165.7,320,1097,320,1029,320C960,320,891,320,823,320C754.3,320,686,320,617,320C548.6,320,480,320,411,320C342.9,320,274,320,206,320C137.1,320,69,320,34,320L0,320Z"></path></svg>