<?xml version="1.0" encoding="UTF-8"?>
<svg width="752pt" height="752pt" version="1.1" viewBox="0 0 752 752" xmlns="http://www.w3.org/2000/svg">
 <path d="m376 167.62c-114.97 0-208.38 93.406-208.38 208.38 0 114.97 93.406 208.38 208.38 208.38 114.97 0 208.38-93.406 208.38-208.38 0.035156-2.5352-0.94922-4.9766-2.7266-6.7812-1.7812-1.8086-4.2109-2.8242-6.7461-2.8242s-4.9648 1.0156-6.7461 2.8242c-1.7812 1.8047-2.7617 4.2461-2.7266 6.7812 0 55.223-23.508 104.96-61.121 139.56-21.914-69.297-71.316-115.88-128.31-115.88s-106.4 46.582-128.31 115.88c-37.613-34.602-61.121-84.336-61.121-139.56 0-104.73 84.699-189.43 189.43-189.43 90.77 0 166.4 63.668 184.99 148.73 0.53125 2.4727 2.0234 4.6328 4.1445 6.0078 2.125 1.3711 4.707 1.8477 7.1797 1.3164 2.4727-0.52734 4.6328-2.0195 6.0078-4.1445 1.375-2.1211 1.8477-4.7031 1.3164-7.1758-20.465-93.625-104-163.68-203.64-163.68zm0 71.039c-36.504 0-66.301 29.797-66.301 66.301s29.797 66.301 66.301 66.301c36.508 0 66.305-29.797 66.305-66.301s-29.797-66.301-66.305-66.301zm0 18.941c26.27 0 47.359 21.09 47.359 47.359 0 26.266-21.09 47.359-47.359 47.359-26.266 0-47.355-21.094-47.355-47.359 0-26.27 21.09-47.359 47.355-47.359zm0 161.02c48.344 0 93.391 41.969 112.33 109.96-31.422 23.164-70.234 36.852-112.33 36.852-42.09 0-80.902-13.688-112.32-36.852 18.938-67.988 63.984-109.96 112.32-109.96z" fill="#28190d"/>
</svg>
