<?xml version="1.0" encoding="UTF-8"?>
<svg width="752pt" height="752pt" version="1.1" viewBox="0 0 752 752" xmlns="http://www.w3.org/2000/svg">
 <path d="m550.47 426.95c4.6875-8.0703 6.5234-17.48 5.2188-26.723-1.3086-9.2422-5.6875-17.773-12.434-24.227 6.7539-6.5469 11.129-15.16 12.434-24.473 1.3086-9.3164-0.52734-18.801-5.2188-26.953 6.7305-2.4219 12.555-6.8555 16.68-12.699s6.3516-12.816 6.3789-19.969v-15.371c-0.078125-21.605-8.7227-42.293-24.043-57.523-15.316-15.23-36.055-23.762-57.656-23.719h-232.61c-21.605-0.046875-42.344 8.4844-57.664 23.715-15.32 15.23-23.969 35.922-24.047 57.527v15.375-0.003906c0.03125 7.1523 2.2617 14.121 6.3867 19.965 4.1211 5.8438 9.9414 10.277 16.672 12.703-4.7266 8.1797-6.5352 17.719-5.1367 27.062 1.4023 9.3398 5.9297 17.93 12.844 24.363-6.9141 6.4336-11.441 15.023-12.84 24.363-1.4023 9.3398 0.41016 18.879 5.1328 27.059-6.5664 2.5625-12.199 7.0664-16.145 12.906-3.9492 5.8438-6.0234 12.746-5.9492 19.797v14.898c-0.015625 21.672 8.5898 42.461 23.918 57.781 15.328 15.32 36.117 23.918 57.793 23.898h232.6c21.648-0.058593 42.391-8.6836 57.703-23.988 15.309-15.305 23.938-36.043 24.004-57.691v-14.898c0.023437-7.3594-2.293-14.535-6.6094-20.496-4.3164-5.9609-10.41-10.398-17.41-12.68zm-57.688 106.22h-232.6c-15.48 0.046875-30.348-6.0469-41.336-16.949-10.988-10.902-17.203-25.719-17.281-41.195v-14.898c-0.035156-3.1992 1.2148-6.2734 3.4766-8.5391 2.2578-2.2617 5.332-3.5195 8.5312-3.4883h179.74c4.6016 7.6484 11.719 13.457 20.129 16.438 8.4102 2.9805 17.598 2.9453 25.984-0.097656v12.973-0.003906c-0.066407 10.18 3.9297 19.965 11.105 27.188 7.1719 7.2188 16.93 11.281 27.109 11.281 10.18 0 19.938-4.0625 27.113-11.281 7.1719-7.2227 11.168-17.008 11.102-27.188v-29.309h23.562c6.4961 0.15625 11.645 5.5312 11.52 12.027v14.898c0.027344 15.43-6.0898 30.238-17.004 41.148-10.914 10.91-25.723 17.027-41.152 16.996zm-274.41-126.88c0.003906-4.9648 1.9727-9.7266 5.4844-13.242 3.5078-3.5156 8.2656-5.4961 13.23-5.5078h46.648l21.129 25.949v-0.003907c4.0977 4.8438 11.246 5.6875 16.355 1.9297l34.613-27.875h31.703v37.484h-150.45c-4.9375-0.089844-9.6484-2.0938-13.137-5.5898-3.4922-3.4922-5.4922-8.2031-5.5781-13.145zm0-60.547c0.039062-4.5625 1.707-8.957 4.7031-12.395 2.9961-3.4375 7.125-5.6914 11.637-6.3516l30.289 36.992h-27.91c-4.8906 0.019531-9.5898-1.8828-13.094-5.2969-3.5-3.4102-5.5195-8.0625-5.6211-12.949zm-17.312-69.207c0.050781-15.41 6.1914-30.176 17.09-41.074 10.895-10.898 25.66-17.043 41.07-17.094h232.61c15.41 0.054687 30.172 6.1992 41.066 17.098 10.891 10.898 17.031 25.66 17.082 41.07v15.375-0.003906c0.042969 3.0703-1.1562 6.0273-3.3242 8.2031-2.1719 2.1719-5.125 3.375-8.1953 3.3359h-325.84c-6.3438-0.078125-11.469-5.1953-11.559-11.539zm331.62 69.207c-0.003906 4.5977-1.7383 9.0234-4.8516 12.402-3.1172 3.3789-7.3906 5.4648-11.973 5.8438-1.457 0.49219 7.207 0-131.21 0 0 0 24.984-20.168 46.152-36.992h83.148c4.9922-0.078125 9.8047 1.8711 13.336 5.4062 3.5312 3.5312 5.4766 8.3438 5.3945 13.34zm-216.77 44.191c-0.45703 0-50.914-62.469-51.418-62.938h128.82c-2.8906 2.3984-74.973 60.543-77.406 62.938zm176.87 87.473c-0.082031 5.3516-2.9844 10.262-7.6328 12.91-4.6445 2.6523-10.348 2.6523-14.996 0-4.6484-2.6484-7.5469-7.5586-7.6289-12.91v-40.824c-0.21094-5.5898-4.3672-10.238-9.8984-11.066-5.5352-0.82812-10.871 2.4023-12.703 7.6875-0.92578 2.957-2.7852 5.5391-5.2969 7.3594-2.5117 1.8203-5.543 2.7773-8.6445 2.7383-3.9453-0.023438-7.7266-1.6016-10.516-4.3945-2.7891-2.793-4.3633-6.5742-4.3828-10.523v-40.844h81.699zm23.074-52.383v-37.484c6.2188 0.67188 11.699 4.3828 14.629 9.9102 2.9297 5.5234 2.9297 12.141 0 17.664-2.9297 5.5273-8.4102 9.2383-14.629 9.9102zm-223-169.17v-5.7578c-0.003907-3.0625 1.207-6 3.3711-8.1641 2.1602-2.168 5.0977-3.3828 8.1562-3.3828 3.0625 0 6 1.2148 8.1602 3.3828 2.1641 2.1641 3.375 5.1016 3.3711 8.1641v5.7578c-0.011718 6.3594-5.1719 11.508-11.531 11.508-6.3555 0-11.516-5.1484-11.527-11.508zm47.113 20.191v-5.7812c0.14062-6.4023 5.3711-11.523 11.773-11.523 6.4062 0 11.637 5.1211 11.773 11.523v5.7812c-0.12891 6.4102-5.3594 11.539-11.773 11.539-6.4102 0-11.645-5.1289-11.773-11.539zm47.566-20.191v-5.7578c0.12891-6.4102 5.3633-11.539 11.777-11.539 6.4102 0 11.645 5.1289 11.773 11.539v5.7578c-0.13281 6.4062-5.3672 11.527-11.773 11.527-6.4102 0-11.641-5.1211-11.777-11.527zm47.57 20.191 0.003906-5.7812c0.09375-6.3359 5.2188-11.445 11.555-11.52 3.0664-0.042969 6.0195 1.1602 8.1914 3.3281 2.168 2.168 3.3672 5.1211 3.3281 8.1914v5.7812c0.046875 3.0703-1.1523 6.0273-3.3203 8.2031-2.1719 2.1719-5.1289 3.375-8.1992 3.332-6.3438-0.070313-11.477-5.1914-11.555-11.535z" fill="#28190d" fill-rule="evenodd"/>
</svg>
