<?xml version="1.0" encoding="UTF-8"?>
<svg width="752pt" height="752pt" version="1.1" viewBox="0 0 752 752" xmlns="http://www.w3.org/2000/svg">
 <defs>
  <clipPath id="a">
   <path d="m155 139.21h443v473.58h-443z"/>
  </clipPath>
 </defs>
 <g clip-path="url(#a)">
  <path d="m186.57 202.36v-15.785h31.57v15.785c0 13.465 7.4844 25.559 19.512 31.57l6.6602 3.332c11.141 5.5195 20.508 14.047 27.039 24.621 6.5352 10.57 9.9766 22.762 9.9336 35.191h-31.57c0-13.465-7.4844-25.559-19.512-31.57l-6.6602-3.332h-0.003907c-11.137-5.5195-20.504-14.047-27.039-24.621-6.5352-10.57-9.9766-22.762-9.9297-35.191zm78.93-35.297v-27.848h31.57v27.848c0 15.754 8.7617 29.914 22.844 36.957v-0.003906c12.137 6.0234 22.34 15.324 29.465 26.852 7.1211 11.523 10.875 24.812 10.836 38.363v27.844h-31.57v-27.844c0-15.754-8.7617-29.914-22.844-36.957-12.137-6.0234-22.344-15.324-29.465-26.852-7.1211-11.523-10.875-24.812-10.836-38.359zm-27.09 244.45 30.562-7.8633v0.003906c8.8242 33.895 33.141 61.637 65.59 74.824l-11.84 29.266c-41.723-16.961-72.984-52.637-84.312-96.23zm327.02-35.504c0 66.727-34.207 127.27-91.512 162l-5.5742 3.3789-6.9609 27.879c-0.85156 3.418-2.8242 6.4531-5.6016 8.625-2.7773 2.168-6.2031 3.3438-9.7266 3.3398h-140.12c-3.5195 0.003906-6.9414-1.168-9.7188-3.3359-2.7773-2.1641-4.7539-5.1953-5.6094-8.6133l-7.168-28.699-5.3672-3.3789c-56.449-35.469-91.508-99.465-91.508-166.98v-9.9922h378.86zm0-47.359h-39.465l69.82-167.57-29.141-12.156-74.887 179.73h-19.668l14.367-172.34-31.477-2.6211-14.574 174.96h-253.84c-17.41 0-31.57 14.16-31.57 31.57v9.9922c0 76.105 38.488 148.39 100.87 190.21l4.1211 16.527h-0.003907c2.5625 10.246 8.4766 19.344 16.805 25.84s18.59 10.02 29.148 10.012h140.12c10.566 0.007812 20.828-3.5195 29.156-10.02s14.238-15.598 16.797-25.848l3.8516-15.422c63.461-40.996 101.14-109.84 101.14-185.5v-15.785c0-17.41-14.16-31.57-31.57-31.57z" fill="#28190d" fill-rule="evenodd"/>
 </g>
</svg>
