<?xml version="1.0" encoding="UTF-8"?>
<svg width="752pt" height="752pt" version="1.1" viewBox="0 0 752 752" xmlns="http://www.w3.org/2000/svg">
 <g fill="#28190d">
  <path d="m447.51 285.55c-18.941 0-40.727-9.9453-55.41-25.102-10.891-11.367-14.68-24.625-10.418-34.57 5.2109-10.891 16.574-14.207 26.992-17.051 2.8398-0.94531 5.2109-1.4219 7.5781-2.3672 2.8398-0.94531 5.2109-1.8945 8.0508-3.3164 3.3164-1.4219 7.1055-2.8398 10.891-4.2617 5.6836-1.8945 11.367-2.8398 17.996-2.8398 18.469 0 37.887 8.0508 50.199 20.836 5.2109 3.7891 13.262 12.312 12.312 23.207-1.4219 15.156-17.996 28.887-50.672 42.148-5.207 2.3711-11.363 3.3164-17.52 3.3164zm5.6836-73.879c-4.7344 0-8.9961 0.47266-12.785 1.8945-2.8398 0.94531-6.1562 2.3672-8.9961 3.7891-2.8398 1.4219-6.1562 2.8398-9.4727 3.7891-2.8398 0.94531-5.6836 1.8945-8.5234 2.3672-7.5781 1.8945-15.156 4.2617-17.051 8.5234-1.8945 3.7891 1.4219 10.891 7.1055 17.051 11.84 12.312 29.363 20.363 44.043 20.363 4.2617 0 8.5234-0.47266 11.84-1.8945 36.465-14.207 40.254-25.574 40.727-28.414 0.47266-5.2109-5.6836-8.9961-5.6836-8.9961-0.47266-0.47266-0.94531-0.94531-1.4219-1.4219-9.9453-10.418-25.102-17.051-39.781-17.051z"/>
  <path d="m365.58 433.3h-3.7891c-28.887-3.3164-47.359-12.312-57.777-26.992-3.3164-4.7344-4.7344-8.9961-4.2617-13.734 0.47266-9.9453 9.4727-15.156 15.629-18.941 8.0508-4.7344 15.156-10.418 21.312-16.102l1.8945-1.8945c4.2617-4.2617 8.9961-8.9961 16.102-11.84 2.8398-1.4219 6.6289-1.8945 9.9453-1.8945 8.0508 0 14.68 3.3164 17.996 8.9961 2.3672 3.7891 2.8398 8.5234 3.3164 10.891 0.47266 4.2617 2.3672 6.1562 4.7344 9.4727 3.3164 4.2617 8.0508 10.418 7.1055 20.836-2.3672 16.102-7.1055 35.52-17.996 38.832-4.7383 0.94922-9 2.3711-14.211 2.3711zm-0.94531-75.773c-1.4219 0-2.8398 0.47266-4.2617 0.94531-3.7891 1.4219-7.1055 4.7344-10.891 8.5234l-1.8984 1.4258c-7.1055 7.1055-15.156 13.262-24.152 18.469-2.8398 1.4219-8.0508 4.7344-8.0508 6.6289 0 0 0 0.94531 1.8945 3.3164 7.5781 10.418 23.207 17.523 46.883 20.363 3.3164 0.47266 6.6289-0.47266 10.418-1.4219 2.3672-2.8398 6.1562-14.68 7.5781-26.047 0.47266-3.3164-0.47266-5.2109-3.7891-8.9961-2.8398-3.7891-7.1055-8.9961-8.0508-17.523 0-1.4219-0.47266-3.3164-0.94531-3.7891-0.47266-0.94531-2.3672-1.8945-4.7344-1.8945z"/>
  <path d="m429.04 342.38c-12.785 0-26.047-3.7891-38.832-11.367-31.73-18.941-38.832-62.512-34.098-80.508 2.8398-9.9453 8.9961-10.891 11.367-10.891 2.3672 0 5.6836 0.94531 8.9961 4.2617 45.465 49.727 95.191 57.305 95.664 57.777 2.3672 0.47266 4.7344 1.8945 6.1562 4.2617 0.94531 2.3672 0.94531 5.2109-0.47266 7.5781-10.895 18.941-28.418 28.887-48.781 28.887zm-58.25-81.93c-0.47266 13.734 4.7344 43.098 27.941 56.828 9.9453 6.1562 20.836 9.4727 30.781 9.4727 11.367 0 21.312-4.2617 28.887-12.312-18.469-5.2109-53.512-18.945-87.609-53.988z"/>
  <path d="m326.75 496.29c-16.574 0-33.152-7.5781-47.832-20.836-25.102-23.207-25.102-62.984-17.523-82.402 3.7891-9.9453 8.9961-11.84 12.785-11.84 2.3672 0 6.6289 0.94531 9.9453 6.1562 33.625 58.25 80.98 76.719 81.457 76.719 2.3672 0.94531 4.2617 2.8398 4.7344 5.6836 0.47266 2.3672 0 5.2109-1.8945 7.1055-11.836 12.785-26.043 19.414-41.672 19.414zm-52.094-93.766c-3.7891 13.262-4.7344 43.098 15.156 61.566 11.367 10.891 24.625 16.574 36.938 16.574 8.0508 0 15.156-2.3672 21.785-7.1055-16.578-8.9961-47.832-29.836-73.879-71.035z"/>
  <path d="m343.32 420.52c-5.2109-1.4219-9.9453-3.7891-14.68-6.1562l-13.734 21.785c3.7891 3.7891 8.0508 7.5781 11.84 10.891z"/>
  <path d="m397.31 324.38c-2.8398-1.8945-5.2109-3.7891-7.5781-5.6836l-19.891 31.258c3.7891 0.47266 7.5781 1.8945 9.4727 5.2109 1.4219 1.8945 1.8945 4.2617 1.8945 6.6289l21.785-34.098c-1.8945-1.4219-3.7891-2.3711-5.6836-3.3164z"/>
  <path d="m420.99 269.92-8.5234 13.262c4.7344 2.8398 8.9961 5.6836 13.262 8.0508l9.9453-15.629c-4.7383-1.4219-9.9492-3.3125-14.684-5.6836z"/>
  <path d="m291.23 473.09-68.195 107.03c-2.3672 3.7891-1.4219 8.5234 2.3672 10.891 1.4219 0.94531 2.8398 1.4219 4.2617 1.4219 2.3672 0 5.2109-1.4219 6.6289-3.7891l68.195-106.55c-4.7344-2.3672-8.9961-5.207-13.258-8.9961z"/>
  <path d="m478.77 208.36 24.152-37.414c2.3672-3.7891 1.4219-8.5234-2.3672-10.891-3.7891-2.3672-8.5234-1.4219-10.891 2.3672l-26.992 42.148c5.6797 0.47266 10.887 1.418 16.098 3.7891z"/>
 </g>
</svg>
