<?xml version="1.0" encoding="UTF-8"?>
<svg width="752pt" height="752pt" version="1.1" viewBox="0 0 752 752" xmlns="http://www.w3.org/2000/svg">
 <path d="m474.32 383.62h-14.777v91.922c0 2.3203-1.8945 4.2148-4.2148 4.2148h-52.141c-2.3203 0-4.2148-1.8945-4.2148-4.2148v-57.965c0-2.3203-1.8945-4.2148-4.2148-4.2148h-37.602c-2.3203 0-4.2148 1.8945-4.2148 4.2148v57.965c0 2.3203-1.8945 4.2148-4.2148 4.2148h-52.094c-2.3203 0-4.2148-1.8945-4.2148-4.2148v-91.922h-14.777c-7.293 0-10.988-8.8555-5.8242-14.02l92.586-92.539c6.3477-6.3945 16.766-6.3945 23.109 0l92.586 92.539c5.2109 5.2109 1.5625 14.02-5.7773 14.02z" fill="#28190d"/>
</svg>
