<?xml version="1.0" encoding="UTF-8"?>
<svg width="752pt" height="752pt" version="1.1" viewBox="0 0 752 752" xmlns="http://www.w3.org/2000/svg">
 <g fill="#28190d">
  <path d="m320.31 355.85c-1.6211-8.3633-8.9727-14.43-17.477-14.43-1.1328 0-2.2734 0.10938-3.3945 0.32031l-34.84 6.7383c-4.6758 0.90625-8.7188 3.5703-11.375 7.5156-2.668 3.9453-3.6406 8.6914-2.7266 13.359l11.5 59.457c1.6016 8.3828 8.9609 14.469 17.48 14.469 1.1328 0 2.2695-0.10938 3.3906-0.33203l34.855-6.7422c9.6328-1.8711 15.961-11.219 14.109-20.875zm-39.301 67.352-10.773-55.703 31.062-6.0391 10.777 55.73z"/>
  <path d="m585.38 333.16c-7.1133-81.879-76.988-146.02-159.08-146.02-4.6367 0-9.3477 0.20703-14.004 0.60938l-9.8359 0.85156 9.75 112.12c-27.215-25.602-64.289-40.746-104.99-39.426-80.461 2.6523-143.77 70.262-141.12 150.73 2.6094 79.18 66.672 141.2 145.85 141.2 1.6133 0 3.25-0.019532 4.875-0.085938 12.227-0.39844 24.047-2.3203 35.316-5.5391 22.301 11.266 47.059 17.277 71.922 17.277h0.007812c59.02 0 113.03-32.277 140.94-84.227 16.902-31.473 22.086-66.145 17.172-99.016 3.4609-15.52 4.6484-31.809 3.1992-48.469zm-147.25 79.215c-0.070313 1.7109-0.16016 3.4141-0.29688 5.1133-0.0625 0.75-0.13281 1.4805-0.20703 2.2305-0.17969 1.7109-0.37109 3.4141-0.61719 5.0977-0.085937 0.62891-0.16406 1.2695-0.26953 1.8945-0.30859 1.9805-0.66797 3.9414-1.0742 5.9023-0.0625 0.30469-0.10938 0.59375-0.17188 0.89062-2.0664 9.6367-5.2266 18.895-9.3633 27.609-10.922 23.012-28.574 42.309-50.535 55.152-2.0781 1.2227-4.2109 2.3594-6.3633 3.4648-0.49219 0.25-1.0039 0.49219-1.5 0.73828-1.7773 0.87109-3.5703 1.7109-5.3906 2.4961-0.46094 0.20312-0.91797 0.40625-1.3828 0.60156-4.668 1.9688-9.4922 3.6797-14.43 5.0859-9.6953 2.7578-19.855 4.4062-30.367 4.7539-70.469 2.2812-128.04-52.18-130.34-122.04-2.2773-69.582 52.457-128.05 122.04-130.35 1.4141-0.046875 2.8359-0.066407 4.2422-0.066407 42.617 0 80.172 20.801 102.99 53.016 1.6055 2.2578 3.1172 4.5898 4.5703 6.9609 0.25 0.40625 0.49219 0.82031 0.73828 1.2266 2.8242 4.7266 5.3359 9.6523 7.5391 14.758 0.20703 0.49219 0.42188 0.98438 0.62109 1.4766 1.0508 2.5391 2.0586 5.1094 2.9414 7.7344 0.007813 0.007812 0.007813 0.015624 0.019532 0.019531 0.54297 1.6211 0.98828 3.2969 1.4805 4.9453 0.48828 1.6992 1 3.3906 1.4297 5.1211 0.17578 0.69141 0.29688 1.3984 0.46094 2.0938 0.94141 4.0273 1.6797 8.1133 2.2305 12.281 0.066406 0.52734 0.15625 1.0508 0.22656 1.5742 0.21875 1.8711 0.35156 3.7656 0.48828 5.6641 0.13281 1.7422 0.30859 3.4609 0.37109 5.2383 0.085937 2.4141 0.085937 4.8125 0.019531 7.1992-0.023437 0.71094-0.066406 1.4141-0.097656 2.1172zm128.04-62.023c-0.027343 1.1836-0.070312 2.3672-0.12891 3.5469-0.042969 0.99609-0.10547 1.9844-0.17578 2.9727-0.066406 1.0508-0.15625 2.1016-0.26172 3.1484-0.097656 1.0742-0.20312 2.1406-0.32812 3.2109-0.10547 0.91016-0.22656 1.8242-0.35938 2.7266-0.15234 1.1641-0.30859 2.3242-0.49219 3.4805-0.097657 0.60938-0.21875 1.2227-0.32813 1.832-0.54297 3.0781-1.1758 6.125-1.9141 9.1367-13.199 53.578-57.508 96.043-114.12 104.98l-1.8203-20.848c8.1758-19.043 12.422-40.109 11.703-62.129-0.92188-27.875-9.4805-53.617-23.633-75.285l-10.453-120.22c0.82422-0.015625 1.6289-0.023438 2.4336-0.023438 71.938 0 133.18 56.219 139.41 127.98 0.19531 2.1484 0.30859 4.2969 0.39453 6.4297 0.03125 0.73047 0.042969 1.457 0.0625 2.1875 0.042969 1.3867 0.0625 2.7734 0.0625 4.1523-0.015625 0.91406-0.035156 1.8086-0.058594 2.7148z"/>
 </g>
</svg>
