<?xml version="1.0" encoding="UTF-8"?>
<svg width="752pt" height="752pt" version="1.1" viewBox="0 0 752 752" xmlns="http://www.w3.org/2000/svg">
 <path d="m559.8 178.03c-3.3789 0.94531-313.37 86.039-313.37 86.496-3.2852-4.3398-7.7539-7.6445-12.863-9.5195-5.1133-1.875-10.652-2.2461-15.969-1.0625l-14.887 2.8906c-5.9805 1.2266-11.426 4.2969-15.566 8.7852-4.1406 4.4844-6.7656 10.16-7.5078 16.219-20.184 159.08 131.19 310.93 290.29 290.76 6.125-0.76562 11.852-3.4609 16.344-7.6914 4.4922-4.2344 7.5195-9.7891 8.6484-15.859l3.3594-14.898c1.0312-5.2422 0.58984-10.668-1.2773-15.676-1.8672-5.0078-5.0859-9.3984-9.2969-12.688 42.277-153.3 47.098-171.57 86.031-313.35 1.1836-3.9805 0.12891-8.2891-2.7578-11.277-2.8867-2.9844-7.1562-4.1836-11.176-3.1328zm-41.828 129.76-18.246 66.809c-7.1367-2.1055-13.391-6.4844-17.816-12.469-4.4219-5.9844-6.7734-13.25-6.6914-20.691 0.007812-10.609 4.8789-20.629 13.219-27.191 8.3359-6.5625 19.223-8.9414 29.535-6.457zm-66.324 33.648c-0.11328 12.59 3.9141 24.871 11.473 34.941 7.5547 10.074 18.215 17.379 30.336 20.789l-28.324 101.91c-112.96 4.7812-217.25-99.5-212.43-212.43l29.801-8.1953c4.6641 16.074 17.473 28.488 33.68 32.652 16.211 4.1602 33.414-0.54688 45.246-12.383 11.832-11.84 16.531-29.047 12.359-45.254l172.05-47.57-21.621 79.293c-17.387-4.457-35.855-0.63281-50.047 10.363-14.188 10.992-22.5 27.926-22.527 45.875zm-248.93-56.707c0.47656-2.4297 2.3711-4.332 4.8008-4.8164 8.6641-1.9102 5.2852-1.4531 14.898-3.3789 1.8867-0.22656 3.7773 0.39062 5.168 1.6914 1.3867 1.3008 2.1289 3.1484 2.0273 5.0469-6.7188 128.79 110.55 246.07 239.34 238.87 1.9375-0.046875 3.7891 0.80469 5.0156 2.3086 1.2266 1.5 1.6875 3.4844 1.2539 5.375-1.9258 9.1406-0.96484 5.7734-2.8906 14.898-0.56641 2.5625-2.6836 4.4922-5.2852 4.8164-143.71 18.238-282.6-120.63-264.32-264.81zm125.43 4.3242c-5.1445 0.042969-10.168-1.5703-14.324-4.5977-4.1602-3.0312-7.2344-7.3164-8.7695-12.227l46.641-12.5v-0.003906c1.5508 7.1367-0.20312 14.59-4.7773 20.281-4.5703 5.6953-11.469 9.0195-18.77 9.0469zm4.8125 55.73c0.039062 3.0742-1.1641 6.0391-3.3398 8.2109-2.1758 2.1719-5.1406 3.3711-8.2148 3.3281h-16.352c-6.3281-0.089843-11.434-5.207-11.508-11.539-0.11719-6.4883 5.0234-11.855 11.508-12.012h16.352c3.1484-0.015625 6.1641 1.2617 8.3477 3.5312s3.3398 5.3359 3.207 8.4805zm166.77-92.727-9.1523 13.938c-3.6602 5.3164-10.863 6.7891-16.32 3.3438-5.25-3.7109-6.7305-10.859-3.375-16.352l9.1367-13.445h-0.003906c1.6094-2.7461 4.3047-4.6797 7.418-5.3203 3.1172-0.64062 6.3594 0.070312 8.918 1.9531 5.2812 3.4805 6.7852 10.555 3.3789 15.883zm-102.88 39.375c3.0898-5.6875 10.188-7.8203 15.898-4.7773l13.934 8.1523v0.003906c2.7656 1.4219 4.8359 3.8984 5.7461 6.8711 0.91016 2.9727 0.57812 6.1875-0.91797 8.9141-1.4961 2.7227-4.0273 4.7305-7.0234 5.5586-2.9961 0.83203-6.1992 0.41406-8.8867-1.1523l-14.41-7.7031c-2.7188-1.4922-4.7148-4.0234-5.5352-7.0156-0.81641-2.9883-0.38672-6.1836 1.1953-8.8516zm48.566 164.86v-0.003906c-0.0625 2.9961-1.3125 5.8477-3.4766 7.9219-2.1641 2.0703-5.0664 3.1992-8.0625 3.1289h-0.48828l-16.336-0.46875c-3.0625-0.125-5.9453-1.4609-8.0234-3.7148-2.0742-2.2539-3.168-5.2383-3.0391-8.3008 0.125-3.0586 1.4648-5.9453 3.7227-8.0156 2.2539-2.0742 5.2422-3.1641 8.3047-3.0312l16.332 0.47656h-0.003906c3.1016 0.003906 6.0586 1.3047 8.1562 3.5859 2.1016 2.2773 3.1562 5.3281 2.9141 8.418zm-22.586-71.137h-0.003906c-0.066406-10.387-4.2578-20.32-11.648-27.621-7.3906-7.2969-17.375-11.363-27.762-11.297-10.34-0.050781-20.27 4.0352-27.586 11.344-7.3164 7.3086-11.406 17.234-11.371 27.574-0.058594 10.391 4.0117 20.383 11.316 27.773 7.3047 7.3906 17.246 11.578 27.641 11.637 10.438-0.042969 20.438-4.2109 27.816-11.594 7.3828-7.3789 11.551-17.379 11.594-27.816zm-39.414 15.859c-4.207 0.003906-8.2461-1.6641-11.223-4.6367-2.9766-2.9727-4.6484-7.0078-4.6523-11.215 0-4.207 1.668-8.2422 4.6406-11.219 2.9766-2.9766 7.0117-4.6484 11.219-4.6523 4.207 0 8.2422 1.6719 11.215 4.6445 2.9766 2.9766 4.6484 7.0117 4.6484 11.219-0.03125 4.1953-1.7109 8.207-4.6758 11.176-2.9648 2.9648-6.9766 4.6484-11.172 4.6836z" fill="#28190d" fill-rule="evenodd"/>
</svg>
