<?xml version="1.0" encoding="UTF-8"?>
<svg width="752pt" height="752pt" version="1.1" viewBox="0 0 752 752" xmlns="http://www.w3.org/2000/svg">
 <g fill="#28190d">
  <path d="m548.62 409.53-248.16 93.418 3.9453 10.566 250.88-86.156z"/>
  <path d="m567.21 479.08-261.84 41.836 1.7539 11.141 263.04-34.172z"/>
  <path d="m514.74 315.64c0.25-15.488-4.3789-30.664-13.238-43.371-23.254-33.742-77.676-52.324-153.25-52.324-86.855 0-144.09 23.793-161.16 67.023v-0.003906c-3.5312 9.1445-5.3125 18.871-5.2539 28.676 0 64.32 71.168 136.26 166.41 136.26 95.293-0.003906 166.49-71.941 166.49-136.26zm-313.96 0c-0.058594-7.4297 1.2773-14.805 3.9375-21.742 13.809-34.961 66.125-55.012 143.53-55.012 68.184 0 118.37 16.098 137.68 44.164l0.0625 0.089843c6.6016 9.5352 10.035 20.902 9.8086 32.5 0 54.25-64.453 117.31-147.55 117.31-83.051 0-147.47-63.062-147.47-117.31z"/>
  <path d="m489.16 307.97c0-9.0273-3.7656-22.484-21.672-35.27-25.375-18.355-69.949-29.312-119.24-29.312-80.336 0-140.91 27.766-140.91 64.582 0.027344 6.332 1.7891 12.535 5.0859 17.938 16.332 27.902 70.918 46.645 135.82 46.645 80.34 0 140.92-27.766 140.92-64.582zm-260.43 8.3047c-0.11719-0.19531-0.19531-0.39062-0.30469-0.58594 5.0781-3.3594 9.9219-6.3359 10.973-6.9102h-0.003907c9.9727-5.168 20.66-8.8125 31.711-10.812 17.266-3.2266 35.824-0.24219 53.656-1.4531 19.527-1.2891 34.211-10.973 52.047-17.43 16.312-5.5625 33.688-7.2891 50.773-5.043 10.254 3.2422 19.973 7.9727 28.852 14.039 6.2891 4.4922 13.785 11.59 13.785 19.891 0 21.586-50.09 45.641-121.97 45.641-63.434 0-108.9-19.203-119.52-37.336z"/>
  <path d="m292.55 324.98-23.762-18.832c-4.0977-3.2461-10.055-2.5547-13.301 1.543-3.25 4.0977-2.5625 10.055 1.5352 13.305l23.762 18.828c4.0977 3.25 10.055 2.5586 13.305-1.5391 3.25-4.1016 2.5586-10.059-1.5391-13.305z"/>
  <path d="m312.75 301.87c-5.2305 0.16797-9.332 4.543-9.1602 9.7734l0.89453 27.797v-0.003906c0.16406 5.1094 4.3516 9.168 9.4609 9.168 0.10156 0 0.20703-0.003906 0.30859-0.003906 5.2305-0.16797 9.332-4.543 9.1641-9.7734l-0.89453-27.797v0.003906c-0.074219-2.5156-1.1484-4.8945-2.9844-6.6133-1.832-1.7227-4.2773-2.6367-6.7891-2.5508z"/>
  <path d="m377.14 307.68c3.3984-3.9492 2.9688-9.9062-0.96875-13.328-3.9375-3.418-9.8945-3.0117-13.332 0.90625l-23.762 27.348v0.003906c-1.6602 1.8945-2.4961 4.3711-2.3242 6.8828 0.17188 2.5117 1.3359 4.8516 3.2383 6.5039 1.9023 1.6523 4.3828 2.4766 6.8945 2.2969 2.5117-0.17969 4.8477-1.3555 6.4922-3.2617z"/>
  <path d="m406.76 314.05-34.523 12.102c-4.9375 1.7305-7.5352 7.1367-5.8047 12.07 1.7305 4.9375 7.1367 7.5352 12.07 5.8047l34.523-12.102c2.375-0.82813 4.3242-2.5664 5.418-4.832 1.0898-2.2656 1.2383-4.8711 0.40625-7.2461-0.83203-2.375-2.5742-4.3164-4.8438-5.4062-2.2695-1.0859-4.875-1.2266-7.2461-0.39062z"/>
  <path d="m424.78 321.44c3.4727 3.9102 9.4609 4.2617 13.367 0.78516 3.9102-3.4727 4.2617-9.4609 0.78906-13.367l-16.141-18.16c-3.4766-3.9102-9.4609-4.2617-13.371-0.78516-3.9102 3.4727-4.2617 9.4609-0.78516 13.367z"/>
 </g>
</svg>
