<?xml version="1.0" encoding="UTF-8"?>
<svg width="752pt" height="752pt" version="1.1" viewBox="0 0 752 752" xmlns="http://www.w3.org/2000/svg">
 <path d="m540.74 334.56c-1.0156 3.8867-3.5156 6.9375-6.7539 8.7891-4.8086-3.8867-9.8984-7.3086-15.168-10.453l19.238-11.098c2.7734 3.4219 3.8867 8.1367 2.6836 12.762zm-245.86 221.53c-32.93-51.242-14.984-126.44 41.254-175.74 4.625-4.0703 5.0859-11.098 1.0156-15.633-4.0703-4.5312-11.098-5.0859-15.633-1.0156-60.676 53.184-80.656 132.64-52.539 191.38-6.6602 2.6836-14.523 1.3867-19.98-3.9766-0.83203-0.83203-1.6641-1.8516-2.3125-2.7734-3.1445-4.7188-9.4336-6.2891-14.523-3.6055-6.9375 3.6992-15.816 2.6836-21.645-3.2383-5.8281-5.8281-6.9375-14.707-3.2383-21.645 2.6836-4.9961 1.1094-11.285-3.6055-14.523-1.0156-0.64844-1.9414-1.3867-2.7734-2.3125-5.3633-5.3633-6.7539-13.32-3.9766-19.98 9.4336 4.5312 19.426 7.8633 29.785 9.9883 6.0117 1.2031 11.84-2.6836 13.043-8.6953s-2.6836-11.84-8.6953-13.043c-12.488-2.4961-24.328-7.2148-35.148-14.152l189.06-232.35c31.727 34.688 31.727 72.797 30.062 92.59-19.98 3.793-40.145 11.098-59.289 22.016-5.3633 3.0508-7.2148 9.8047-4.1641 15.168s9.8047 7.2148 15.168 4.1641c19.332-11.008 39.773-17.945 59.938-20.719 38.199-5.2734 75.293 4.2539 100.73 29.137zm157.8-334.19c1.4805 1.4805 2.7734 2.9609 3.8867 4.625 1.8516 2.6836 4.9023 4.4414 8.1406 4.7188s6.4766-0.92578 8.7891-3.2383l0.09375-0.09375c7.3984-7.3984 19.332-7.3984 26.73 0 11.656 11.656-0.09375 26.824-0.09375 26.918-10.637-1.1094-21.367 0-31.633 3.5156-1.7578-4.2539-4.4414-8.2305-7.8633-11.656-10.453-10.453-25.715-13.227-38.758-8.3242-3.6992-7.1211-8.1406-13.875-13.227-20.164 13.32-9.5273 31.91-8.2344 43.934 3.6992zm74.367-26.359 16.371 16.371-17.203 17.203c-1.9414-6.1953-5.918-13.598-13.133-19.609zm-91.109 85.648c-1.2031-7.6758-2.9609-15.168-5.3633-22.383 4.9023-1.5742 10.543-0.37109 14.43 3.6055 1.8516 1.8516 3.0508 4.0703 3.6992 6.4766-4.8086 3.5156-9.0625 7.7695-12.766 12.301zm7.4922 33.207c3.5156-12.855 11.562-24.141 23.68-31.172 10.176-5.918 21.645-7.7695 32.742-6.1055 13.504 1.9414 26.453 9.0664 35.98 20.348l-42.086 24.234c-15.723-5.2695-32.742-7.6758-50.316-7.3047zm112.94-51.242-11.562 11.656c-6.0117-5.3633-12.766-9.8047-19.793-13.133l14.984-14.984zm23.586-7.8633-24.234-24.234 11.285-11.285c4.3477-4.3477 4.3477-11.379 0-15.723l-32.098-32.098c-4.3477-4.3477-11.379-4.3477-15.723 0l-28.305 28.305c-8.0469-0.73828-16.281 0.83203-23.586 4.8086-20.625-19.516-52.352-20.535-74.09-3.0508-0.83203-0.64844-1.5742-1.3867-2.4062-2.0352-4.7188-3.8867-11.746-3.1445-15.633 1.5742l-203.86 250.66c-3.8867 4.7188-3.1445 11.746 1.5742 15.633 1.5742 1.2969 3.2383 2.4961 4.8086 3.6992-7.5859 14.891-5.3633 33.484 6.6602 46.25-3.6992 13.598-0.18359 28.676 10.453 39.312s25.715 14.152 39.312 10.453c12.766 12.023 31.355 14.246 46.25 6.6602 1.2031 1.6641 2.4062 3.2383 3.6992 4.8086 3.8867 4.7188 10.82 5.457 15.633 1.5742l250.66-203.86c4.7188-3.8867 5.457-10.82 1.5742-15.633-0.64844-0.73828-1.2969-1.4805-1.9414-2.2188 5.6406-4.7188 9.9883-11.098 12.023-18.684 2.8672-10.543 0.73828-21.273-4.8086-29.691l0.09375-0.09375c5.2734-3.0508 7.1211-9.8984 4.0703-15.168-0.73828-1.2031-1.4805-2.4062-2.2188-3.6055l20.719-20.812c4.3398-4.2617 4.3398-11.293 0.085937-15.547z" fill="#28190d"/>
</svg>
